<svg xmlns="http://www.w3.org/2000/svg" viewBox="0 0 651 52"><defs><style>.cls-1{fill:#f9f6c2;}</style></defs><title>资源 13dachaoka</title><g id="图层_2" data-name="图层 2"><g id="图层_1-2" data-name="图层 1"><rect class="cls-1" width="119.87" height="52"/><rect class="cls-1" x="135.46" width="119.87" height="52"/><rect class="cls-1" x="268.98" width="119.87" height="52"/><rect class="cls-1" x="399.57" width="119.87" height="52"/><rect class="cls-1" x="531.13" width="119.87" height="52"/><path d="M10.82,23.72c.61.42,1.38,1,2.3,1.79-.32.37-.57.67-.77.89-.76-.7-1.5-1.34-2.22-1.9Zm1,4c.35.15.71.28,1.08.42q-.58,2.4-1.26,5.34l-1.15-.38A48,48,0,0,0,11.79,27.76Zm-.25-7.56c.8.63,1.56,1.27,2.28,1.93-.29.31-.55.59-.8.84-.89-.9-1.61-1.57-2.15-2Zm11.28,8.18.72.79c-.68.54-1.38,1.07-2.11,1.57a8.19,8.19,0,0,0,2.64,1.33c-.18.22-.44.56-.77,1a8.51,8.51,0,0,1-4.76-4.48,15,15,0,0,1-1.41,1.25v2.4l2.23-.78c0,.41,0,.77,0,1.1-.61.18-1.27.42-2,.7a10.34,10.34,0,0,0-1,.46l-.61-.85a1.19,1.19,0,0,0,.33-1V30.57a15.86,15.86,0,0,1-2.52,1.32,7.33,7.33,0,0,0-.73-.95,14.09,14.09,0,0,0,5.08-3l-1.62.09a7.27,7.27,0,0,0-1.24.21l-.47-1a3.44,3.44,0,0,0,1.09-.5,17.18,17.18,0,0,0,2.45-2.5l1,.5c-.93.95-1.75,1.73-2.47,2.33,1.42,0,2.8-.06,4.16-.1-.39-.35-.82-.73-1.3-1.13l.66-.6c1.33,1,2.29,1.84,2.89,2.4l-.77.71-.58-.56-2.47.09a7.22,7.22,0,0,0,1.49,2.22A25,25,0,0,0,22.82,28.38ZM17,22.69l.84.64a25,25,0,0,1-3.39,2.54,6.18,6.18,0,0,0-.7-.81A15.46,15.46,0,0,0,17,22.69ZM14.5,21.47h4c-.19-.42-.39-.83-.62-1.24l1-.4c.3.56.56,1.11.81,1.64h4v1H14.5Zm6,1.26c1.28.84,2.37,1.62,3.28,2.33l-.67.8c-.81-.69-1.89-1.5-3.23-2.44Z"/><path d="M25.11,23.72c.62.42,1.38,1,2.31,1.79l-.77.89c-.77-.7-1.5-1.34-2.22-1.9Zm1,4c.34.15.7.28,1.07.42q-.59,2.4-1.25,5.34l-1.16-.38A48,48,0,0,0,26.09,27.76Zm-.25-7.56c.8.63,1.56,1.27,2.27,1.93-.28.31-.55.59-.79.84-.9-.9-1.61-1.57-2.15-2Zm11.28,8.18.71.79c-.68.54-1.38,1.07-2.11,1.57a8.19,8.19,0,0,0,2.64,1.33c-.18.22-.43.56-.77,1a8.49,8.49,0,0,1-4.75-4.48,14,14,0,0,1-1.42,1.25v2.4l2.24-.78c0,.41,0,.77,0,1.1-.62.18-1.28.42-2,.7a9.19,9.19,0,0,0-1,.46l-.62-.85a1.16,1.16,0,0,0,.34-1V30.57a15.54,15.54,0,0,1-2.53,1.32,7.21,7.21,0,0,0-.72-.95,14.26,14.26,0,0,0,5.08-3l-1.62.09a7.11,7.11,0,0,0-1.24.21l-.48-1a3.34,3.34,0,0,0,1.09-.5,17.73,17.73,0,0,0,2.46-2.5l1,.5c-.93.95-1.76,1.73-2.47,2.33,1.41,0,2.8-.06,4.16-.1-.39-.35-.83-.73-1.3-1.13l.66-.6q2,1.56,2.88,2.4l-.76.71L36,27.82l-2.47.09A7.4,7.4,0,0,0,35,30.13,23.69,23.69,0,0,0,37.12,28.38Zm-5.8-5.69.84.64a25,25,0,0,1-3.39,2.54,5.51,5.51,0,0,0-.7-.81A15.2,15.2,0,0,0,31.32,22.69ZM28.8,21.47h4c-.19-.42-.4-.83-.62-1.24l1-.4c.29.56.56,1.11.8,1.64h4v1H28.8Zm6,1.26c1.27.84,2.37,1.62,3.28,2.33l-.67.8c-.82-.69-1.9-1.5-3.24-2.44Z"/><path d="M38.9,25.63h2.46V19.94h1.15v5.69h9.85v1.09H46.25A9.76,9.76,0,0,0,52.65,32l-.85,1.14a11,11,0,0,1-6.74-6.41H42.51v5.06c1.06-.43,2.18-.92,3.37-1.48,0,.43,0,.85.06,1.25q-1.66.69-3.18,1.44a7,7,0,0,0-1,.69l-.83-1.08a1.24,1.24,0,0,0,.47-1V26.72H38.9Zm4.44-1.7A23.81,23.81,0,0,0,50,20.4l.73.91A26.64,26.64,0,0,1,43.89,25C43.74,24.65,43.56,24.3,43.34,23.93Z"/><path d="M53.7,23.74c.95.57,1.89,1.2,2.81,1.88l-.78,1c-.94-.76-1.83-1.43-2.7-2Zm1.73,4a9.46,9.46,0,0,0,1.15.66q-1,2.5-2,5.19L53.42,33A38.91,38.91,0,0,0,55.43,27.78Zm-1-7.6c.87.58,1.77,1.25,2.7,2l-.76.95c-.87-.78-1.75-1.49-2.62-2.13ZM56.8,31.6h4.47V22.37H57.64v-1h8.67v1H62.44V31.6h4.48v1H56.8Z"/><path d="M70.73,28.44l.94.71Q70.08,31,68,33c-.24-.26-.51-.52-.8-.78A38,38,0,0,0,70.73,28.44Zm-2-.84V26.54l1.6-3.71H67.55V21.77h3.2l.82-1.91,1.2.25L72,21.77H81v1.06h-9.4L70,26.54h4.21V23.48h1.17v3.06h5V27.6h-5v4.12a1.58,1.58,0,0,1-1.82,1.75l-2.09,0-.21-1.25a17.41,17.41,0,0,0,2,.12c.65,0,1-.32,1-1V27.6Zm8,1.78.78-.77c1.29,1.06,2.57,2.17,3.86,3.33l-.87.88Q78.56,30.95,76.69,29.38Z"/><path d="M87.55,32.27l3.9,0,4.07-.11c-.15.36-.3.73-.44,1.09l-4.64,0-3.15-.06a3.83,3.83,0,0,1-3.46-1.67,16.2,16.2,0,0,0-1.69,1.95l-.6-1.19c.63-.62,1.23-1.21,1.83-1.76V25.91H81.7v-1h2.74v5.95A3.5,3.5,0,0,0,87.55,32.27ZM83.11,20.2c.59.74,1.14,1.52,1.67,2.34l-.94.65q-.78-1.32-1.56-2.43ZM85,26.61c.55-.15,1.16-.33,1.84-.54V23.65H85.22v-1H86.8V20h1v2.65h1.52v1H87.85v2.1l1.48-.48a10.18,10.18,0,0,0,0,1.11c-.47.13-1,.29-1.48.45v2.5c0,1.1-.48,1.65-1.43,1.65-.28,0-.68,0-1.2,0A10.63,10.63,0,0,0,85,29.84a7.67,7.67,0,0,0,1.13.09c.42,0,.63-.25.63-.76v-2l-1.61.55Zm9.85-6.17.25,1c-1.32.16-2.66.3-4,.42v2.48h4.34v1H93.74v6.25h-1V25.36H91a9.38,9.38,0,0,1-2,6.25,8,8,0,0,0-.87-.84A8.17,8.17,0,0,0,90,25V21C91.55,20.87,93.16,20.69,94.81,20.44Z"/><path d="M96.28,24.45V23.39h4.81v1a17.43,17.43,0,0,1-4.32,7.84,7.5,7.5,0,0,0-.85-.85A15.73,15.73,0,0,0,100,24.45Zm6-4.47h1.13v2.24a22.91,22.91,0,0,0,1.37,3,26.19,26.19,0,0,0,3.08-3.07l.94.83a37,37,0,0,1-3.45,3.19A15.87,15.87,0,0,0,109.82,31a11.54,11.54,0,0,0-.95,1.05,18,18,0,0,1-5.5-7.15v6.52c0,1.39-.67,2.08-2,2.08H99.56c0-.35-.12-.77-.23-1.26a17.37,17.37,0,0,0,1.82.11c.73,0,1.09-.35,1.09-1Z"/><path d="M149.82,24.22c.61.42,1.38,1,2.3,1.79-.32.37-.57.67-.77.89-.76-.7-1.5-1.34-2.22-1.9Zm1,4c.35.15.71.28,1.08.42q-.59,2.4-1.26,5.34l-1.15-.38A48,48,0,0,0,150.79,28.26Zm-.25-7.56c.8.63,1.56,1.27,2.28,1.93-.29.31-.55.59-.8.84-.89-.9-1.61-1.57-2.15-2Zm11.28,8.18.72.79c-.68.54-1.38,1.07-2.11,1.57a8.19,8.19,0,0,0,2.64,1.33c-.18.22-.44.56-.77,1a8.51,8.51,0,0,1-4.76-4.48,15,15,0,0,1-1.41,1.25v2.4l2.23-.78c0,.41,0,.77,0,1.1-.61.18-1.27.42-2,.7a10.34,10.34,0,0,0-1,.46l-.61-.85a1.19,1.19,0,0,0,.33-1V31.07a15.86,15.86,0,0,1-2.52,1.32,7.33,7.33,0,0,0-.73-.95,14.09,14.09,0,0,0,5.08-3l-1.62.09a7.27,7.27,0,0,0-1.24.21l-.47-1a3.44,3.44,0,0,0,1.09-.5,17.18,17.18,0,0,0,2.45-2.5l1,.5c-.93.95-1.75,1.73-2.47,2.33,1.42,0,2.8-.06,4.16-.1-.39-.35-.82-.73-1.3-1.13l.66-.6c1.33,1,2.29,1.84,2.89,2.4l-.77.71-.58-.56-2.47.09a7.22,7.22,0,0,0,1.49,2.22A25,25,0,0,0,161.82,28.88ZM156,23.19l.84.64a25,25,0,0,1-3.39,2.54,6.18,6.18,0,0,0-.7-.81A15.46,15.46,0,0,0,156,23.19ZM153.5,22h4c-.19-.42-.39-.83-.62-1.24l1-.4c.3.56.56,1.11.81,1.64h4v1H153.5Zm6,1.26c1.28.84,2.37,1.62,3.28,2.33l-.67.8c-.81-.69-1.89-1.5-3.23-2.44Z"/><path d="M164.11,24.22c.62.42,1.38,1,2.31,1.79l-.77.89c-.77-.7-1.5-1.34-2.22-1.9Zm1,4c.34.15.7.28,1.07.42q-.58,2.4-1.25,5.34l-1.16-.38A48,48,0,0,0,165.09,28.26Zm-.25-7.56c.8.63,1.56,1.27,2.27,1.93-.28.31-.55.59-.79.84-.9-.9-1.61-1.57-2.15-2Zm11.28,8.18.71.79c-.68.54-1.38,1.07-2.11,1.57a8.19,8.19,0,0,0,2.64,1.33c-.18.22-.43.56-.77,1a8.49,8.49,0,0,1-4.75-4.48,14,14,0,0,1-1.42,1.25v2.4l2.24-.78c0,.41,0,.77,0,1.1-.62.18-1.28.42-2,.7a9.19,9.19,0,0,0-1,.46l-.62-.85a1.16,1.16,0,0,0,.34-1V31.07a15.54,15.54,0,0,1-2.53,1.32,7.21,7.21,0,0,0-.72-.95,14.26,14.26,0,0,0,5.08-3l-1.62.09a7.11,7.11,0,0,0-1.24.21l-.48-1a3.34,3.34,0,0,0,1.09-.5,17.73,17.73,0,0,0,2.46-2.5l1,.5c-.93.95-1.76,1.73-2.47,2.33,1.41,0,2.8-.06,4.16-.1-.39-.35-.83-.73-1.3-1.13l.66-.6q2,1.56,2.88,2.4l-.76.71-.59-.56-2.47.09A7.4,7.4,0,0,0,174,30.63,23.69,23.69,0,0,0,176.12,28.88Zm-5.8-5.69.84.64a25,25,0,0,1-3.39,2.54,5.51,5.51,0,0,0-.7-.81A15.2,15.2,0,0,0,170.32,23.19ZM167.8,22h4c-.19-.42-.4-.83-.62-1.24l1-.4c.29.56.56,1.11.8,1.64h4v1H167.8Zm6,1.26c1.27.84,2.37,1.62,3.28,2.33l-.67.8c-.82-.69-1.9-1.5-3.24-2.44Z"/><path d="M177.9,26.13h2.46V20.44h1.15v5.69h9.85v1.09h-6.11a9.76,9.76,0,0,0,6.4,5.27l-.85,1.14a11,11,0,0,1-6.74-6.41h-2.55v5.06c1.06-.43,2.18-.92,3.37-1.48,0,.43,0,.85.06,1.25q-1.66.69-3.18,1.44a7,7,0,0,0-1,.69l-.83-1.08a1.24,1.24,0,0,0,.47-1V27.22H177.9Zm4.44-1.7A23.81,23.81,0,0,0,189,20.9l.73.91a26.64,26.64,0,0,1-6.84,3.65C182.74,25.15,182.56,24.8,182.34,24.43Z"/><path d="M192.7,24.24c1,.57,1.89,1.2,2.81,1.88l-.78,1c-.94-.76-1.83-1.43-2.7-2Zm1.73,4a9.46,9.46,0,0,0,1.15.66q-1,2.5-2,5.19l-1.19-.67A38.91,38.91,0,0,0,194.43,28.28Zm-1-7.6c.87.58,1.77,1.25,2.7,2l-.76.95c-.87-.78-1.75-1.49-2.62-2.13ZM195.8,32.1h4.47V22.87h-3.63v-1h8.67v1h-3.87V32.1h4.48v1H195.8Z"/><path d="M209.73,28.94l.94.71q-1.59,1.88-3.63,3.85c-.24-.26-.51-.52-.8-.78A38,38,0,0,0,209.73,28.94Zm-2-.84V27l1.6-3.71h-2.74V22.27h3.2l.82-1.91,1.2.25L211,22.27H220v1.06h-9.4L209,27h4.21V24h1.17V27h5V28.1h-5v4.12A1.58,1.58,0,0,1,212.52,34l-2.09,0-.21-1.25a17.41,17.41,0,0,0,2,.12c.65,0,1-.32,1-1V28.1Zm8,1.78.78-.77c1.29,1.06,2.57,2.17,3.86,3.33l-.87.88Q217.56,31.45,215.69,29.88Z"/><path d="M226.55,32.77l3.9,0,4.07-.11c-.15.36-.3.73-.44,1.09l-4.64,0-3.15-.06a3.83,3.83,0,0,1-3.46-1.67,16.2,16.2,0,0,0-1.69,1.95l-.6-1.19c.63-.62,1.23-1.21,1.83-1.76V26.41H220.7v-1h2.74v5.95A3.5,3.5,0,0,0,226.55,32.77ZM222.11,20.7c.59.74,1.14,1.52,1.67,2.34l-.94.65q-.78-1.32-1.56-2.43ZM224,27.11c.55-.15,1.16-.33,1.84-.54V24.15h-1.58v-1h1.58V20.52h1v2.65h1.52v1h-1.52v2.1l1.48-.48a10.18,10.18,0,0,0,0,1.11c-.47.13-1,.29-1.48.45v2.5c0,1.1-.48,1.65-1.43,1.65-.28,0-.68,0-1.2,0a10.63,10.63,0,0,0-.18-1.13,7.67,7.67,0,0,0,1.13.09c.42,0,.63-.25.63-.76v-2l-1.61.55Zm9.85-6.17.25,1c-1.32.16-2.66.3-4,.42v2.48h4.34v1h-1.63v6.25h-1.05V25.86H230a9.38,9.38,0,0,1-2,6.25,8,8,0,0,0-.87-.84A8.17,8.17,0,0,0,229,25.53V21.46C230.55,21.37,232.16,21.19,233.81,20.94Z"/><path d="M235.28,25V23.89h4.81v1a17.43,17.43,0,0,1-4.32,7.84,7.5,7.5,0,0,0-.85-.85A15.73,15.73,0,0,0,239,25Zm6-4.47h1.13v2.24a22.91,22.91,0,0,0,1.37,3,26.19,26.19,0,0,0,3.08-3.07l.94.83a37,37,0,0,1-3.45,3.19,15.87,15.87,0,0,0,4.51,4.74,11.54,11.54,0,0,0-.95,1.05,18,18,0,0,1-5.5-7.15v6.52c0,1.39-.67,2.08-2,2.08h-1.81c-.05-.35-.12-.77-.23-1.26a17.37,17.37,0,0,0,1.82.11c.73,0,1.09-.35,1.09-1Z"/><path d="M284.82,24.72c.61.42,1.38,1,2.3,1.79-.32.37-.57.67-.77.89-.76-.7-1.5-1.34-2.22-1.9Zm1,4c.35.15.71.28,1.08.42q-.58,2.4-1.26,5.34l-1.15-.38A48,48,0,0,0,285.79,28.76Zm-.25-7.56c.8.63,1.56,1.27,2.28,1.93-.29.31-.55.59-.8.84-.89-.9-1.61-1.57-2.15-2Zm11.28,8.18.72.79c-.68.54-1.38,1.07-2.11,1.57a8.19,8.19,0,0,0,2.64,1.33c-.18.22-.44.56-.77,1a8.51,8.51,0,0,1-4.76-4.48,15,15,0,0,1-1.41,1.25v2.4l2.23-.78c0,.41,0,.77,0,1.1-.61.18-1.27.42-2,.7a10.34,10.34,0,0,0-1,.46l-.61-.85a1.19,1.19,0,0,0,.33-1V31.57a15.86,15.86,0,0,1-2.52,1.32,7.33,7.33,0,0,0-.73-.95,14.09,14.09,0,0,0,5.08-3l-1.62.09a7.27,7.27,0,0,0-1.24.21l-.47-1a3.44,3.44,0,0,0,1.09-.5,17.18,17.18,0,0,0,2.45-2.5l1,.5c-.93.95-1.75,1.73-2.47,2.33,1.42,0,2.8-.06,4.16-.1-.39-.35-.82-.73-1.3-1.13l.66-.6c1.33,1,2.29,1.84,2.89,2.4l-.77.71-.58-.56-2.47.09a7.22,7.22,0,0,0,1.49,2.22A25,25,0,0,0,296.82,29.38ZM291,23.69l.84.64a25,25,0,0,1-3.39,2.54,6.18,6.18,0,0,0-.7-.81A15.46,15.46,0,0,0,291,23.69Zm-2.53-1.22h4c-.19-.42-.39-.83-.62-1.24l1-.4c.3.56.56,1.11.81,1.64h4v1H288.5Zm6,1.26c1.28.84,2.37,1.62,3.28,2.33l-.67.8c-.81-.69-1.89-1.5-3.23-2.44Z"/><path d="M299.11,24.72c.62.42,1.38,1,2.31,1.79l-.77.89c-.77-.7-1.5-1.34-2.22-1.9Zm1,4c.34.15.7.28,1.07.42q-.59,2.4-1.25,5.34l-1.16-.38A48,48,0,0,0,300.09,28.76Zm-.25-7.56c.8.63,1.56,1.27,2.27,1.93-.28.31-.55.59-.79.84-.9-.9-1.61-1.57-2.15-2Zm11.28,8.18.71.79c-.68.54-1.38,1.07-2.11,1.57a8.19,8.19,0,0,0,2.64,1.33c-.18.22-.43.56-.77,1a8.49,8.49,0,0,1-4.75-4.48,14,14,0,0,1-1.42,1.25v2.4l2.24-.78c0,.41,0,.77,0,1.1-.62.18-1.28.42-2,.7a9.19,9.19,0,0,0-1,.46l-.62-.85a1.16,1.16,0,0,0,.34-1V31.57a15.54,15.54,0,0,1-2.53,1.32,7.21,7.21,0,0,0-.72-.95,14.26,14.26,0,0,0,5.08-3l-1.62.09a7.11,7.11,0,0,0-1.24.21l-.48-1a3.34,3.34,0,0,0,1.09-.5,17.73,17.73,0,0,0,2.46-2.5l1,.5c-.93.95-1.76,1.73-2.47,2.33,1.41,0,2.8-.06,4.16-.1-.39-.35-.83-.73-1.3-1.13l.66-.6q2,1.56,2.88,2.4l-.76.71-.59-.56-2.47.09A7.4,7.4,0,0,0,309,31.13,23.69,23.69,0,0,0,311.12,29.38Zm-5.8-5.69.84.64a25,25,0,0,1-3.39,2.54,5.51,5.51,0,0,0-.7-.81A15.2,15.2,0,0,0,305.32,23.69Zm-2.52-1.22h4c-.19-.42-.4-.83-.62-1.24l1-.4c.29.56.56,1.11.8,1.64h4v1H302.8Zm6,1.26c1.27.84,2.37,1.62,3.28,2.33l-.67.8c-.82-.69-1.9-1.5-3.24-2.44Z"/><path d="M312.9,26.63h2.46V20.94h1.15v5.69h9.85v1.09h-6.11a9.76,9.76,0,0,0,6.4,5.27l-.85,1.14a11,11,0,0,1-6.74-6.41h-2.55v5.06c1.06-.43,2.18-.92,3.37-1.48,0,.43,0,.85.06,1.25q-1.67.69-3.18,1.44a7,7,0,0,0-1,.69l-.83-1.08a1.24,1.24,0,0,0,.47-1V27.72H312.9Zm4.44-1.7A23.81,23.81,0,0,0,324,21.4l.73.91A26.64,26.64,0,0,1,317.89,26C317.74,25.65,317.56,25.3,317.34,24.93Z"/><path d="M327.7,24.74c.95.57,1.89,1.2,2.81,1.88l-.78,1c-.94-.76-1.83-1.43-2.7-2Zm1.73,4a9.46,9.46,0,0,0,1.15.66q-1,2.5-2,5.19L327.42,34A38.91,38.91,0,0,0,329.43,28.78Zm-1-7.6c.87.58,1.77,1.25,2.7,2l-.76.95c-.87-.78-1.75-1.49-2.62-2.13ZM330.8,32.6h4.47V23.37h-3.63v-1h8.67v1h-3.87V32.6h4.48v1H330.8Z"/><path d="M344.73,29.44l.94.71Q344.08,32,342,34c-.24-.26-.51-.52-.8-.78A38,38,0,0,0,344.73,29.44Zm-2-.84V27.54l1.6-3.71h-2.74V22.77h3.2l.82-1.91,1.2.25L346,22.77H355v1.06h-9.4L344,27.54h4.21V24.48h1.17v3.06h5V28.6h-5v4.12a1.58,1.58,0,0,1-1.82,1.75l-2.09,0-.21-1.25a17.41,17.41,0,0,0,2,.12c.65,0,1-.32,1-1V28.6Zm8,1.78.78-.77c1.29,1.06,2.57,2.17,3.86,3.33l-.87.88Q352.56,31.95,350.69,30.38Z"/><path d="M361.55,33.27l3.9,0,4.07-.11c-.15.36-.3.73-.44,1.09l-4.64,0-3.15-.06a3.83,3.83,0,0,1-3.46-1.67,16.2,16.2,0,0,0-1.69,1.95l-.6-1.19c.63-.62,1.23-1.21,1.83-1.76V26.91H355.7v-1h2.74v5.95A3.5,3.5,0,0,0,361.55,33.27ZM357.11,21.2c.59.74,1.14,1.52,1.67,2.34l-.94.65q-.78-1.32-1.56-2.43ZM359,27.61c.55-.15,1.16-.33,1.84-.54V24.65h-1.58v-1h1.58V21h1.05v2.65h1.52v1h-1.52v2.1l1.48-.48a10.18,10.18,0,0,0,0,1.11c-.47.13-1,.29-1.48.45v2.5c0,1.1-.48,1.65-1.43,1.65-.28,0-.68,0-1.2,0a10.63,10.63,0,0,0-.18-1.13,7.67,7.67,0,0,0,1.13.09c.42,0,.63-.25.63-.76v-2l-1.61.55Zm9.85-6.17.25,1c-1.32.16-2.66.3-4,.42v2.48h4.34v1h-1.63v6.25h-1.05V26.36H365a9.38,9.38,0,0,1-2,6.25,8,8,0,0,0-.87-.84A8.17,8.17,0,0,0,364,26V22C365.55,21.87,367.16,21.69,368.81,21.44Z"/><path d="M370.28,25.45V24.39h4.81v1a17.43,17.43,0,0,1-4.32,7.84,7.5,7.5,0,0,0-.85-.85A15.73,15.73,0,0,0,374,25.45Zm6-4.47h1.13v2.24a22.91,22.91,0,0,0,1.37,3,26.19,26.19,0,0,0,3.08-3.07l.94.83a37,37,0,0,1-3.45,3.19A15.87,15.87,0,0,0,383.82,32a11.54,11.54,0,0,0-.95,1.05,18,18,0,0,1-5.5-7.15v6.52c0,1.39-.67,2.08-2,2.08h-1.81c-.05-.35-.12-.77-.23-1.26a17.37,17.37,0,0,0,1.82.11c.73,0,1.09-.35,1.09-1Z"/><path d="M411.82,25.22c.61.42,1.38,1,2.3,1.79-.32.37-.57.67-.77.89-.76-.7-1.5-1.34-2.22-1.9Zm1,4c.35.15.71.28,1.08.42q-.58,2.4-1.26,5.34l-1.15-.38A48,48,0,0,0,412.79,29.26Zm-.25-7.56c.8.63,1.56,1.27,2.28,1.93-.29.31-.55.59-.8.84-.89-.9-1.61-1.57-2.15-2Zm11.28,8.18.72.79c-.68.54-1.38,1.07-2.11,1.57a8.19,8.19,0,0,0,2.64,1.33c-.18.22-.44.56-.77,1a8.51,8.51,0,0,1-4.76-4.48,15,15,0,0,1-1.41,1.25v2.4l2.23-.78c0,.41,0,.77,0,1.1-.61.18-1.27.42-2,.7a10.34,10.34,0,0,0-1,.46l-.61-.85a1.19,1.19,0,0,0,.33-1V32.07a15.86,15.86,0,0,1-2.52,1.32,7.33,7.33,0,0,0-.73-1,14.09,14.09,0,0,0,5.08-3l-1.62.09a7.27,7.27,0,0,0-1.24.21l-.47-1a3.44,3.44,0,0,0,1.09-.5,17.18,17.18,0,0,0,2.45-2.5l1,.5c-.93.95-1.75,1.73-2.47,2.33,1.42,0,2.8-.06,4.16-.1-.39-.35-.82-.73-1.3-1.13l.66-.6c1.33,1,2.29,1.84,2.89,2.4l-.77.71-.58-.56-2.47.09a7.22,7.22,0,0,0,1.49,2.22A25,25,0,0,0,423.82,29.88ZM418,24.19l.84.64a25,25,0,0,1-3.39,2.54,6.18,6.18,0,0,0-.7-.81A15.46,15.46,0,0,0,418,24.19ZM415.5,23h4c-.19-.42-.39-.83-.62-1.24l1-.4c.3.56.56,1.11.81,1.64h4v1H415.5Zm6,1.26c1.28.84,2.37,1.62,3.28,2.33l-.67.8c-.81-.69-1.89-1.5-3.23-2.44Z"/><path d="M426.11,25.22c.62.42,1.38,1,2.31,1.79l-.77.89c-.77-.7-1.5-1.34-2.22-1.9Zm1,4c.34.15.7.28,1.07.42q-.59,2.4-1.25,5.34l-1.16-.38A48,48,0,0,0,427.09,29.26Zm-.25-7.56c.8.63,1.56,1.27,2.27,1.93-.28.31-.55.59-.79.84-.9-.9-1.61-1.57-2.15-2Zm11.28,8.18.71.79c-.68.54-1.38,1.07-2.11,1.57a8.19,8.19,0,0,0,2.64,1.33c-.18.22-.43.56-.77,1a8.49,8.49,0,0,1-4.75-4.48,14,14,0,0,1-1.42,1.25v2.4l2.24-.78c0,.41,0,.77,0,1.1-.62.18-1.28.42-2,.7a9.19,9.19,0,0,0-1,.46l-.62-.85a1.16,1.16,0,0,0,.34-1V32.07a15.54,15.54,0,0,1-2.53,1.32,7.21,7.21,0,0,0-.72-1,14.26,14.26,0,0,0,5.08-3l-1.62.09a7.11,7.11,0,0,0-1.24.21l-.48-1a3.34,3.34,0,0,0,1.09-.5,17.73,17.73,0,0,0,2.46-2.5l1,.5c-.93.95-1.76,1.73-2.47,2.33,1.41,0,2.8-.06,4.16-.1-.39-.35-.83-.73-1.3-1.13l.66-.6q2,1.56,2.88,2.4l-.76.71-.59-.56-2.47.09A7.4,7.4,0,0,0,436,31.63,23.69,23.69,0,0,0,438.12,29.88Zm-5.8-5.69.84.64a25,25,0,0,1-3.39,2.54,5.51,5.51,0,0,0-.7-.81A15.2,15.2,0,0,0,432.32,24.19ZM429.8,23h4c-.19-.42-.4-.83-.62-1.24l1-.4c.29.56.56,1.11.8,1.64h4v1H429.8Zm6,1.26c1.27.84,2.37,1.62,3.28,2.33l-.67.8c-.82-.69-1.9-1.5-3.24-2.44Z"/><path d="M439.9,27.13h2.46V21.44h1.15v5.69h9.85v1.09h-6.11a9.76,9.76,0,0,0,6.4,5.27l-.85,1.14a11,11,0,0,1-6.74-6.41h-2.55v5.06c1.06-.43,2.18-.92,3.37-1.48,0,.43,0,.85.06,1.25q-1.67.69-3.18,1.44a7,7,0,0,0-1,.69l-.83-1.08a1.24,1.24,0,0,0,.47-1V28.22H439.9Zm4.44-1.7A23.81,23.81,0,0,0,451,21.9l.73.91a26.64,26.64,0,0,1-6.84,3.65C444.74,26.15,444.56,25.8,444.34,25.43Z"/><path d="M454.7,25.24c.95.57,1.89,1.2,2.81,1.88l-.78,1c-.94-.76-1.83-1.43-2.7-2Zm1.73,4a9.46,9.46,0,0,0,1.15.66q-1,2.5-2,5.19l-1.19-.67A38.91,38.91,0,0,0,456.43,29.28Zm-1-7.6c.87.58,1.77,1.25,2.7,2l-.76.95c-.87-.78-1.75-1.49-2.62-2.13ZM457.8,33.1h4.47V23.87h-3.63v-1h8.67v1h-3.87V33.1h4.48v1H457.8Z"/><path d="M471.73,29.94l.94.71q-1.59,1.88-3.63,3.85c-.24-.26-.51-.52-.8-.78A38,38,0,0,0,471.73,29.94Zm-2-.84V28l1.6-3.71h-2.74V23.27h3.2l.82-1.91,1.2.25L473,23.27H482v1.06h-9.4L471,28h4.21V25h1.17V28h5V29.1h-5v4.12A1.58,1.58,0,0,1,474.52,35l-2.09,0-.21-1.25a17.41,17.41,0,0,0,2,.12c.65,0,1-.32,1-1V29.1Zm8,1.78.78-.77c1.29,1.06,2.57,2.17,3.86,3.33l-.87.88Q479.56,32.45,477.69,30.88Z"/><path d="M488.55,33.77l3.9,0,4.07-.11c-.15.36-.3.73-.44,1.09l-4.64,0-3.15-.06a3.83,3.83,0,0,1-3.46-1.67,16.2,16.2,0,0,0-1.69,1.95l-.6-1.19c.63-.62,1.23-1.21,1.83-1.76V27.41H482.7v-1h2.74v5.95A3.5,3.5,0,0,0,488.55,33.77ZM484.11,21.7c.59.74,1.14,1.52,1.67,2.34l-.94.65q-.78-1.32-1.56-2.43ZM486,28.11c.55-.15,1.16-.33,1.84-.54V25.15h-1.58v-1h1.58V21.52h1.05v2.65h1.52v1h-1.52v2.1l1.48-.48a10.18,10.18,0,0,0,0,1.11c-.47.13-1,.29-1.48.45v2.5c0,1.1-.48,1.65-1.43,1.65-.28,0-.68,0-1.2,0a10.63,10.63,0,0,0-.18-1.13,7.67,7.67,0,0,0,1.13.09c.42,0,.63-.25.63-.76v-2l-1.61.55Zm9.85-6.17.25,1c-1.32.16-2.66.3-4,.42v2.48h4.34v1h-1.63v6.25h-1.05V26.86H492a9.38,9.38,0,0,1-2,6.25,8,8,0,0,0-.87-.84A8.17,8.17,0,0,0,491,26.53V22.46C492.55,22.37,494.16,22.19,495.81,21.94Z"/><path d="M497.28,26V24.89h4.81v1a17.43,17.43,0,0,1-4.32,7.84,7.5,7.5,0,0,0-.85-.85A15.73,15.73,0,0,0,501,26Zm6-4.47h1.13v2.24a22.91,22.91,0,0,0,1.37,3,26.19,26.19,0,0,0,3.08-3.07l.94.83a37,37,0,0,1-3.45,3.19,15.87,15.87,0,0,0,4.51,4.74,11.54,11.54,0,0,0-.95,1,18,18,0,0,1-5.5-7.15v6.52c0,1.39-.67,2.08-2,2.08h-1.81c-.05-.35-.12-.77-.23-1.26a17.37,17.37,0,0,0,1.82.11c.73,0,1.09-.35,1.09-1Z"/><path d="M544.82,23.22c.61.42,1.38,1,2.3,1.79-.32.37-.57.67-.77.89-.76-.7-1.5-1.34-2.22-1.9Zm1,4c.35.15.71.28,1.08.42q-.58,2.4-1.26,5.34l-1.15-.38A48,48,0,0,0,545.79,27.26Zm-.25-7.56c.8.63,1.56,1.27,2.28,1.93-.29.31-.55.59-.8.84-.89-.9-1.61-1.57-2.15-2Zm11.28,8.18.72.79c-.68.54-1.38,1.07-2.11,1.57a8.19,8.19,0,0,0,2.64,1.33c-.18.22-.44.56-.77,1a8.51,8.51,0,0,1-4.76-4.48,15,15,0,0,1-1.41,1.25v2.4l2.23-.78c0,.41,0,.77,0,1.1-.61.18-1.27.42-2,.7a10.34,10.34,0,0,0-1,.46l-.61-.85a1.19,1.19,0,0,0,.33-1V30.07a15.86,15.86,0,0,1-2.52,1.32,7.33,7.33,0,0,0-.73-.95,14.09,14.09,0,0,0,5.08-3l-1.62.09a7.27,7.27,0,0,0-1.24.21l-.47-1a3.44,3.44,0,0,0,1.09-.5,17.18,17.18,0,0,0,2.45-2.5l1,.5c-.93.95-1.75,1.73-2.47,2.33,1.42,0,2.8-.06,4.16-.1-.39-.35-.82-.73-1.3-1.13l.66-.6c1.33,1,2.29,1.84,2.89,2.4l-.77.71-.58-.56-2.47.09a7.22,7.22,0,0,0,1.49,2.22A25,25,0,0,0,556.82,27.88ZM551,22.19l.84.64a25,25,0,0,1-3.39,2.54,6.18,6.18,0,0,0-.7-.81A15.46,15.46,0,0,0,551,22.19ZM548.5,21h4c-.19-.42-.39-.83-.62-1.24l1-.4c.3.56.56,1.11.81,1.64h4v1H548.5Zm6,1.26c1.28.84,2.37,1.62,3.28,2.33l-.67.8c-.81-.69-1.89-1.5-3.23-2.44Z"/><path d="M559.11,23.22c.62.42,1.38,1,2.31,1.79l-.77.89c-.77-.7-1.5-1.34-2.22-1.9Zm1,4c.34.15.7.28,1.07.42q-.58,2.4-1.25,5.34l-1.16-.38A48,48,0,0,0,560.09,27.26Zm-.25-7.56c.8.63,1.56,1.27,2.27,1.93-.28.31-.55.59-.79.84-.9-.9-1.61-1.57-2.15-2Zm11.28,8.18.71.79c-.68.54-1.38,1.07-2.11,1.57a8.19,8.19,0,0,0,2.64,1.33c-.18.22-.43.56-.77,1a8.49,8.49,0,0,1-4.75-4.48,14,14,0,0,1-1.42,1.25v2.4l2.24-.78c0,.41,0,.77,0,1.1-.62.18-1.28.42-2,.7a9.19,9.19,0,0,0-1,.46l-.62-.85a1.16,1.16,0,0,0,.34-1V30.07a15.54,15.54,0,0,1-2.53,1.32,7.21,7.21,0,0,0-.72-.95,14.26,14.26,0,0,0,5.08-3l-1.62.09a7.11,7.11,0,0,0-1.24.21l-.48-1a3.34,3.34,0,0,0,1.09-.5,17.73,17.73,0,0,0,2.46-2.5l1,.5c-.93.95-1.76,1.73-2.47,2.33,1.41,0,2.8-.06,4.16-.1-.39-.35-.83-.73-1.3-1.13l.66-.6q2,1.56,2.88,2.4l-.76.71-.59-.56-2.47.09A7.4,7.4,0,0,0,569,29.63,23.69,23.69,0,0,0,571.12,27.88Zm-5.8-5.69.84.64a25,25,0,0,1-3.39,2.54,5.51,5.51,0,0,0-.7-.81A15.2,15.2,0,0,0,565.32,22.19ZM562.8,21h4c-.19-.42-.4-.83-.62-1.24l1-.4c.29.56.56,1.11.8,1.64h4v1H562.8Zm6,1.26c1.27.84,2.37,1.62,3.28,2.33l-.67.8c-.82-.69-1.9-1.5-3.24-2.44Z"/><path d="M572.9,25.13h2.46V19.44h1.15v5.69h9.85v1.09h-6.11a9.76,9.76,0,0,0,6.4,5.27l-.85,1.14a11,11,0,0,1-6.74-6.41h-2.55v5.06c1.06-.43,2.18-.92,3.37-1.48,0,.43,0,.85.06,1.25q-1.66.69-3.18,1.44a7,7,0,0,0-1,.69l-.83-1.08a1.24,1.24,0,0,0,.47-1V26.22H572.9Zm4.44-1.7A23.81,23.81,0,0,0,584,19.9l.73.91a26.64,26.64,0,0,1-6.84,3.65C577.74,24.15,577.56,23.8,577.34,23.43Z"/><path d="M587.7,23.24c.95.57,1.89,1.2,2.81,1.88l-.78,1c-.94-.76-1.83-1.43-2.7-2Zm1.73,4a9.46,9.46,0,0,0,1.15.66q-1,2.5-2,5.19l-1.19-.67A38.91,38.91,0,0,0,589.43,27.28Zm-1-7.6c.87.58,1.77,1.25,2.7,2l-.76.95c-.87-.78-1.75-1.49-2.62-2.13ZM590.8,31.1h4.47V21.87h-3.63v-1h8.67v1h-3.87V31.1h4.48v1H590.8Z"/><path d="M604.73,27.94l.94.71q-1.59,1.88-3.63,3.85c-.24-.26-.51-.52-.8-.78A38,38,0,0,0,604.73,27.94Zm-2-.84V26l1.6-3.71h-2.74V21.27h3.2l.82-1.91,1.2.25L606,21.27H615v1.06h-9.4L604,26h4.21V23h1.17V26h5V27.1h-5v4.12A1.58,1.58,0,0,1,607.52,33l-2.09,0-.21-1.25a17.41,17.41,0,0,0,2,.12c.65,0,1-.32,1-1V27.1Zm8,1.78.78-.77c1.29,1.06,2.57,2.17,3.86,3.33l-.87.88Q612.56,30.45,610.69,28.88Z"/><path d="M621.55,31.77l3.9.05,4.07-.11c-.15.36-.3.73-.44,1.09l-4.64,0-3.15-.06a3.83,3.83,0,0,1-3.46-1.67,16.2,16.2,0,0,0-1.69,1.95l-.6-1.19c.63-.62,1.23-1.21,1.83-1.76V25.41H615.7v-1h2.74v5.95A3.5,3.5,0,0,0,621.55,31.77ZM617.11,19.7c.59.74,1.14,1.52,1.67,2.34l-.94.65q-.78-1.32-1.56-2.43ZM619,26.11c.55-.15,1.16-.33,1.84-.54V23.15h-1.58v-1h1.58V19.52h1.05v2.65h1.52v1h-1.52v2.1l1.48-.48a10.18,10.18,0,0,0,0,1.11c-.47.13-1,.29-1.48.45v2.5c0,1.1-.48,1.65-1.43,1.65-.28,0-.68,0-1.2,0a10.63,10.63,0,0,0-.18-1.13,7.67,7.67,0,0,0,1.13.09c.42,0,.63-.25.63-.76v-2l-1.61.55Zm9.85-6.17.25,1c-1.32.16-2.66.3-4,.42v2.48h4.34v1h-1.63v6.25h-1V24.86H625a9.38,9.38,0,0,1-2,6.25,8,8,0,0,0-.87-.84A8.17,8.17,0,0,0,624,24.53V20.46C625.55,20.37,627.16,20.19,628.81,19.94Z"/><path d="M630.28,24V22.89h4.81v1a17.43,17.43,0,0,1-4.32,7.84,7.5,7.5,0,0,0-.85-.85A15.73,15.73,0,0,0,634,24Zm6-4.47h1.13v2.24a22.91,22.91,0,0,0,1.37,3,26.19,26.19,0,0,0,3.08-3.07l.94.83a37,37,0,0,1-3.45,3.19,15.87,15.87,0,0,0,4.51,4.74,11.54,11.54,0,0,0-1,1.05,18,18,0,0,1-5.5-7.15v6.52c0,1.39-.67,2.08-2,2.08h-1.81c0-.35-.12-.77-.23-1.26a17.37,17.37,0,0,0,1.82.11c.73,0,1.09-.35,1.09-1Z"/></g></g></svg>